# xmcd
#
# Track frame offsets:
#	150
#	12657
#	23352
#	38405
#	52587
#	70265
#	82630
#	93135
#	108325
#	119587
#	131322
#	143625
#	155630
#	180515
#
# Disc length: 2545 seconds
#
# Revision: 5
# Processed by: cddbd v1.5.1PL2 Copyright (c) Steve Scherf et al.
# Submitted via: dBpowerAMP V4.0
#
DISCID=9a09ef0e
DTITLE=Howlin' Wolf - My Mind Is Ramblin'
DYEAR=2000
DGENRE=Blues
TTITLE0=My Mind Is Ramblin'
TTITLE1=Hold On To Your Money
TTITLE2=Killing Floor
TTITLE3=I Walked From Dallas
TTITLE4=Goin' Down Slow
TTITLE5=Ain't Superstitious
TTITLE6=Somebody Walkin' In My House
TTITLE7=Commit A Crime
TTITLE8=My Country Sugar Mama
TTITLE9=Louise
TTITLE10=Streamline Woman
TTITLE11=Cause Of It All
TTITLE12=Red Rooster
TTITLE13=Built For Comfort
EXTD=
EXTT0=
EXTT1=
EXTT2=
EXTT3=
EXTT4=
EXTT5=
EXTT6=
EXTT7=
EXTT8=
EXTT9=
EXTT10=
EXTT11=
EXTT12=
EXTT13=
PLAYORDER=
